<?xml version="1.0" encoding="UTF-8"?>
<svg width="88px" height="33px" viewBox="0 0 88 33" version="1.1" xmlns="http://www.w3.org/2000/svg" xmlns:xlink="http://www.w3.org/1999/xlink">
    <!-- Generator: Sketch 57.1 (83088) - https://sketch.com -->
    <title>Group 5</title>
    <desc>Created with Sketch.</desc>
    <g id="Page-1" stroke="none" stroke-width="1" fill="none" fill-rule="evenodd">
        <g id="Screen-1" transform="translate(-516.000000, -42.000000)">
            <g id="Group-5" transform="translate(516.000000, 41.000000)">
                <text id="I2M" fill="#FF6265" font-family="Helvetica" font-size="25" font-weight="normal" line-spacing="55" letter-spacing="1.20000005">
                    <tspan x="45" y="24">I2M</tspan>
                </text>
                <path d="M17.131,21.109 L24.7236943,29.0266583 C22.5574037,30.6420217 19.9574929,31.7027382 17.1316326,31.9999944 L17.131,21.109 Z M13.052,21.193 L13.0520646,31.8920463 C10.3587508,31.4623819 7.89642848,30.3351716 5.85393287,28.7002899 L13.052,21.193 Z M17.1316326,1.00000564 C24.9251124,1.81981244 31,8.44656834 31,16.5 C31,20.1545138 29.7490628,23.5152475 27.6542529,26.1728958 L17.131,15.2 L17.1316326,1.00000564 Z M13.0520646,1.10795371 L13.052,15.284 L3.02078189,25.7457432 C1.12222122,23.1592374 0,19.9613945 0,16.5 C0,8.73001046 5.6547988,2.28803964 13.0520646,1.10795371 Z" id="Combined-Shape" fill="#F2F2F2"></path>
                <path d="M17.131,21.109 L24.7236943,29.0266583 C22.5574037,30.6420217 19.9574929,31.7027382 17.1316326,31.9999944 L17.131,21.109 Z M13.052,21.193 L13.0520646,31.8920463 C10.3587508,31.4623819 7.89642848,30.3351716 5.85393287,28.7002899 L13.052,21.193 Z M17.1316326,1.00000564 C24.9251124,1.81981244 31,8.44656834 31,16.5 C31,20.1545138 29.7490628,23.5152475 27.6542529,26.1728958 L17.131,15.2 L17.1316326,1.00000564 Z M13.0520646,1.10795371 L13.052,15.284 L3.02078189,25.7457432 C1.12222122,23.1592374 0,19.9613945 0,16.5 C0,8.73001046 5.6547988,2.28803964 13.0520646,1.10795371 Z" id="Combined-Shape" fill="#FF6265"></path>
            </g>
        </g>
    </g>
</svg>